<svg width="103" height="89" viewBox="0 0 103 89" fill="none" xmlns="http://www.w3.org/2000/svg">
<path d="M80.4984 86.5623C80.0396 87.022 79.4948 87.3867 78.895 87.6355C78.2951 87.8843 77.6521 88.0124 77.0027 88.0124C76.3533 88.0124 75.7103 87.8843 75.1105 87.6355C74.5107 87.3867 73.9658 87.022 73.5071 86.5623L62.9954 76.0507C62.5364 75.5916 62.1723 75.0466 61.9238 74.4469C61.6754 73.8471 61.5475 73.2043 61.5475 72.5551C61.5475 71.9059 61.6754 71.263 61.9238 70.6632C62.1723 70.0635 62.5364 69.5185 62.9954 69.0594C63.9225 68.1323 65.18 67.6115 66.4911 67.6115C67.1403 67.6115 67.7831 67.7394 68.3829 67.9878C68.9827 68.2362 69.5276 68.6004 69.9867 69.0594L76.9779 76.0507L94.5304 58.4982C94.9895 58.0391 95.5345 57.675 96.1342 57.4265C96.734 57.1781 97.3769 57.0502 98.0261 57.0502C98.6753 57.0502 99.3181 57.1781 99.9179 57.4265C100.518 57.675 101.063 58.0391 101.522 58.4982C101.981 58.9572 102.345 59.5022 102.593 60.102C102.842 60.7018 102.97 61.3446 102.97 61.9938C102.97 62.643 102.842 63.2858 102.593 63.8856C102.345 64.4854 101.981 65.0304 101.522 65.4894L80.4984 86.5623ZM50.8971 80.1661H10.8338C5.37961 80.1661 0.917114 75.7036 0.917114 70.2494V10.7494C0.917114 5.29526 5.37961 0.832764 10.8338 0.832764H90.1671C95.6213 0.832764 100.084 5.29526 100.084 10.7494V43.8711C94.7958 41.3555 88.957 40.2197 83.1116 40.5696C77.2662 40.9195 71.6045 42.7437 66.6544 45.8721C61.7043 49.0006 57.6268 53.3315 54.8022 58.4611C51.9775 63.5907 50.4976 69.3519 50.5004 75.2078C50.5004 76.8936 50.6492 78.5298 50.8971 80.1661ZM47.8725 43.8215C49.4592 44.8132 51.5417 44.8132 53.1284 43.8215L88.1838 21.9057C88.681 21.6266 89.1164 21.2495 89.4636 20.7973C89.8108 20.345 90.0627 19.827 90.2039 19.2746C90.3452 18.7222 90.3729 18.1469 90.2853 17.5835C90.1978 17.0201 89.9969 16.4803 89.6947 15.9968C89.3925 15.5133 88.9953 15.0962 88.5273 14.7706C88.0592 14.445 87.5299 14.2178 86.9715 14.1027C86.4131 13.9876 85.8371 13.9871 85.2784 14.101C84.7198 14.215 84.19 14.4411 83.7213 14.7657L50.5004 35.5411L17.2796 14.7657C16.8109 14.4411 16.2811 14.215 15.7225 14.101C15.1638 13.9871 14.5878 13.9876 14.0294 14.1027C13.471 14.2178 12.9417 14.445 12.4736 14.7706C12.0056 15.0962 11.6084 15.5133 11.3062 15.9968C11.004 16.4803 10.8031 17.0201 10.7156 17.5835C10.628 18.1469 10.6557 18.7222 10.797 19.2746C10.9382 19.827 11.1901 20.345 11.5373 20.7973C11.8845 21.2495 12.3199 21.6266 12.8171 21.9057L47.8725 43.8215Z" fill="#4385F5"/>
</svg>
