<svg width="449" height="376" viewBox="0 0 449 376" fill="none" xmlns="http://www.w3.org/2000/svg">
<path d="M310.731 140.99C313.88 136.647 317.352 132.547 321.118 128.724C322.963 126.822 324.997 125.114 327.189 123.625C328.25 122.912 329.407 122.354 330.625 121.967C330.921 121.887 331.219 121.829 331.514 121.774L332.444 121.696C333.163 121.671 333.879 121.578 334.581 121.42C336.052 121.137 337.419 120.462 338.537 119.466C339.623 118.433 340.433 117.143 340.891 115.716C341.658 112.979 341.785 110.102 341.261 107.309C340.42 101.803 338.204 96.7898 337.038 91.683C336.411 89.1769 336.216 86.5829 336.459 84.0114C336.742 81.4133 337.313 78.8545 338.161 76.382C338.569 75.1452 339.04 73.8556 339.436 72.5408C339.829 71.2316 340.188 69.9143 340.492 68.5853C341.105 65.9308 341.547 63.2399 341.816 60.5291C342.101 57.8123 342.135 55.0751 341.917 52.3522C341.803 50.9744 341.555 49.611 341.175 48.2814C340.974 47.6028 340.702 46.9469 340.365 46.3243C340.027 45.6654 339.551 45.0866 338.97 44.6268C338.356 44.154 337.603 43.8948 336.827 43.8887L336.261 43.9189L335.741 44.0262C335.392 44.0831 335.048 44.1684 334.713 44.2812C333.365 44.7102 332.135 45.4433 331.117 46.4236C329.141 48.3791 327.724 50.8261 327.013 53.5114L327.701 53.5388C326.98 50.6044 325.57 47.8832 323.589 45.5996C322.631 44.447 321.56 43.3934 320.391 42.4546L319.514 41.7532L318.594 41.1112L316.806 39.8464C312.306 36.1551 308.984 31.2324 307.247 25.6826C307.031 25.0083 306.852 24.3229 306.711 23.6292C306.648 23.3112 306.609 22.9891 306.593 22.6654C306.568 22.2288 306.485 21.7974 306.348 21.3819C305.881 19.9466 305.32 18.5431 304.67 17.1803C303.416 14.4697 301.968 11.8534 300.335 9.35193C298.721 6.77101 296.753 4.42814 294.488 2.39136C293.266 1.27389 291.776 0.488856 290.162 0.11156C289.263 -0.0784898 288.33 -0.0249928 287.459 0.266496C286.536 0.551195 285.73 1.1255 285.161 1.90405C284.255 3.35249 283.807 5.03975 283.876 6.74587C283.883 8.28153 284.015 9.81411 284.271 11.3284C284.78 14.2707 285.447 17.1837 286.269 20.0547C287.832 25.7689 289.687 31.3619 291.211 36.9906C292 39.7538 292.575 42.5736 292.93 45.425C293.173 48.2878 293.303 51.24 293.378 54.1524C293.453 57.0753 293.443 60.0015 293.413 62.9291C293.381 65.8797 293.251 68.733 293.169 71.7777C293.163 72.0252 293.247 72.2666 293.407 72.456C293.567 72.6453 293.791 72.7696 294.036 72.8051L294.084 72.8118C294.453 72.8684 294.804 73.008 295.112 73.2202C295.234 73.3032 295.338 73.4096 295.417 73.5334C295.497 73.6571 295.552 73.7956 295.577 73.9406C295.47 74.9007 295.268 75.8479 294.976 76.7687C294.406 78.8869 293.769 81.0073 293.126 83.12C291.824 87.344 290.516 91.572 289.119 95.7708C287.73 99.9723 286.245 104.14 284.714 108.289C283.942 110.362 283.129 112.418 282.257 114.447C281.793 115.446 281.386 116.481 280.861 117.446C280.605 117.932 280.372 118.436 280.096 118.91L279.196 120.285L279.184 120.304C279.167 120.329 279.161 120.36 279.167 120.389C279.173 120.418 279.19 120.444 279.215 120.462C279.239 120.479 279.27 120.486 279.299 120.481C279.329 120.476 279.356 120.46 279.373 120.436L280.375 119.084C280.684 118.617 280.946 118.127 281.235 117.649C281.83 116.699 282.273 115.68 282.793 114.694C283.765 112.694 284.678 110.667 285.549 108.624C287.305 104.542 288.883 100.39 290.436 96.2315C291.963 92.0633 293.475 87.8881 294.851 83.6639C295.543 81.5511 296.225 79.4405 296.853 77.2921C297.017 76.7627 297.158 76.2064 297.307 75.6588C297.396 75.358 297.465 75.0519 297.515 74.7423L297.599 74.2176C297.603 74.0256 297.594 73.8336 297.573 73.6428C297.451 72.8278 297.016 72.0924 296.36 71.5931C295.769 71.1458 295.076 70.8538 294.343 70.7439L295.257 71.7777C295.395 68.9416 295.592 65.9174 295.685 62.9836C295.792 60.0276 295.807 57.0671 295.766 54.1058C295.716 51.1349 295.618 48.2029 295.392 45.1995C295.05 42.2043 294.454 39.2434 293.613 36.3481C292.07 30.6093 290.174 25.0345 288.549 19.4155C287.718 16.6362 287.035 13.8145 286.506 10.9625C286.254 9.57694 286.115 8.17334 286.09 6.76542C286.011 5.51539 286.295 4.26932 286.907 3.17592C287.203 2.75188 287.634 2.43999 288.13 2.29069C288.66 2.10205 289.233 2.065 289.783 2.18371C291.051 2.48406 292.225 3.09346 293.2 3.95743C295.354 5.82922 297.238 7.99004 298.798 10.3782C300.425 12.7834 301.896 15.291 303.199 17.8855C303.857 19.1608 304.432 20.4768 304.922 21.8254C305.026 22.1058 305.097 22.3974 305.134 22.6943C305.162 23.1051 305.222 23.5132 305.314 23.9147C305.489 24.6582 305.705 25.3915 305.96 26.1115C307.925 31.8203 311.513 36.8345 316.284 40.5422L318.117 41.8122L319.015 42.4251L319.87 43.0956C321.008 43.9913 322.054 44.9992 322.99 46.104C324.909 48.2678 326.286 50.8556 327.007 53.6543L327.009 53.6603C327.026 53.7365 327.069 53.8047 327.129 53.8544C327.19 53.904 327.265 53.9323 327.343 53.9347C327.422 53.9372 327.499 53.9137 327.562 53.868C327.626 53.8222 327.673 53.7567 327.695 53.6817C328.405 51.1495 329.775 48.8505 331.666 47.019C332.605 46.135 333.736 45.4797 334.971 45.1044C335.276 45.006 335.587 44.9333 335.904 44.8871L336.374 44.7946L336.816 44.7782C337.396 44.7898 337.955 44.9912 338.408 45.3513C338.882 45.7356 339.26 46.2244 339.512 46.7792C339.796 47.3503 340.02 47.9491 340.181 48.5661C340.496 49.8363 340.687 51.1341 340.75 52.4412C340.872 55.089 340.75 57.7423 340.385 60.3678C340.037 63.0011 339.521 65.6096 338.84 68.1772C338.503 69.4603 338.113 70.7273 337.692 71.9807C337.273 73.2296 336.772 74.4494 336.321 75.7611C335.37 78.3623 334.726 81.065 334.401 83.8148C334.126 86.6083 334.328 89.4282 334.998 92.1544C336.31 97.5131 338.554 102.441 339.395 107.596C339.608 108.872 339.72 110.161 339.73 111.454C339.722 112.71 339.541 113.959 339.193 115.166C338.839 116.313 338.211 117.356 337.363 118.206C336.484 119.036 335.394 119.611 334.211 119.869C333.603 120.026 332.982 120.125 332.356 120.167L331.276 120.293C330.913 120.369 330.55 120.454 330.2 120.56C328.86 121.026 327.594 121.682 326.441 122.508C324.22 124.111 322.174 125.943 320.336 127.972C316.712 131.985 313.434 136.297 310.537 140.862C310.521 140.888 310.515 140.919 310.522 140.949C310.529 140.979 310.547 141.006 310.573 141.022C310.599 141.037 310.629 141.043 310.658 141.037C310.687 141.031 310.713 141.014 310.731 140.99Z" fill="black"/>
<path d="M326.829 53.3451C323.886 59.6762 320.906 65.9918 317.89 72.2918C316.378 75.4395 314.848 78.578 313.299 81.7072C312.52 83.2693 311.734 84.8282 310.925 86.3752C310.519 87.148 310.112 87.92 309.684 88.6806C309.299 89.4629 308.816 90.193 308.246 90.8531C308.835 90.2078 309.34 89.4899 309.747 88.7169C310.196 87.9674 310.626 87.2063 311.053 86.4443C311.905 84.9189 312.735 83.3812 313.558 81.8402C315.201 78.7565 316.818 75.6598 318.411 72.5503C321.607 66.3365 324.763 60.1023 327.879 53.8479C327.948 53.7099 327.959 53.5502 327.91 53.404C327.861 53.2578 327.756 53.1371 327.617 53.0683C327.479 52.9996 327.319 52.9885 327.173 53.0374C327.026 53.0864 326.905 53.1914 326.836 53.3294L326.829 53.3451Z" fill="black"/>
<path d="M296.598 74.1659C296.598 76.2463 284.366 114.398 279.286 120.357C284.294 114.981 289.853 110.143 295.871 105.925C294.872 105.911 293.887 106.162 293.017 106.651C293.017 106.651 291.226 108.135 291.226 104.267C291.226 100.388 306.758 91.4485 308.245 90.8525C309.743 90.2565 314.073 80.5046 314.073 80.5046C308.538 76.7785 302.376 74.0771 295.882 72.5298L296.598 74.1659ZM309.46 218.624C309.981 219.642 310.448 220.682 310.937 221.701C310.937 221.701 313.324 161.196 310.633 140.923L307.952 140.327C305.748 143.578 303.447 146.752 301.201 149.97C298.921 153.156 296.624 156.327 294.308 159.484C289.847 165.563 285.325 171.591 280.741 177.568C283.422 180.862 286.005 184.21 288.588 187.569C291.345 191.178 294.04 194.829 296.674 198.524C299.312 202.208 301.855 205.968 304.305 209.804C305.531 211.722 306.682 213.683 307.821 215.644L309.46 218.624Z" fill="#0AB97A"/>
<path d="M241.362 213.358C241.362 213.358 242.936 218.331 244.748 225.992V226.003C244.748 226.013 244.759 226.024 244.759 226.035C247.158 231.897 249.253 237.857 251.228 243.87C253.215 249.884 254.984 255.973 256.634 262.095C258.229 268.239 259.738 274.404 260.747 280.7C260.975 282.282 261.203 283.864 261.399 285.446L261.572 287.851L261.648 289.043L261.626 290.268L261.572 291.481L261.551 292.088C261.52 292.312 261.469 292.534 261.399 292.749C261.3 293.176 261.112 293.578 260.849 293.93C260.585 294.281 260.252 294.573 259.869 294.788C259.486 295.003 259.062 295.137 258.624 295.179C258.187 295.221 257.746 295.173 257.328 295.035C256.548 294.836 255.799 294.529 255.103 294.125C255.835 294.411 256.601 294.601 257.382 294.688C258.109 294.811 258.855 294.66 259.477 294.266C260.039 293.841 260.416 293.216 260.53 292.521C260.561 292.357 260.583 292.19 260.595 292.023L260.552 291.438L260.476 290.289L260.411 289.13L260.237 287.97L259.89 285.662L258.967 281.036C258.598 279.508 258.251 277.969 257.914 276.442L256.775 271.847C255.993 268.792 255.233 265.736 254.387 262.691L249.492 244.38C247.95 238.648 246.431 232.894 245.02 227.108C249.199 245.127 254.354 276.561 244.955 294.721C244.955 294.721 248.536 367.741 255.7 370.428C255.7 370.428 299.29 376.983 315.115 364.165C321.378 359.094 327.456 349.678 331.939 337.933C336.732 325.17 338.925 311.581 338.39 297.961C337.856 284.342 334.603 270.966 328.824 258.617C323.614 247.359 316.613 232.547 310.937 221.701C308.584 217.833 306.037 214.087 303.306 210.476C300.636 206.835 297.915 203.223 295.144 199.64C292.398 196.064 289.608 192.489 286.819 188.935L279.069 179.161L276.594 181.014L278.179 177.308C278.203 177.208 278.243 177.113 278.298 177.027L278.363 176.875C278.449 176.678 278.583 176.506 278.754 176.376C278.76 176.377 278.766 176.377 278.772 176.375C278.777 176.373 278.782 176.37 278.787 176.366C283.443 170.352 288.157 164.374 292.93 158.433C295.372 155.377 297.868 152.343 300.365 149.32C302.894 146.319 305.368 143.285 307.952 140.327C310.633 135.863 309.287 126.317 309.287 126.317C305.206 108.861 299.344 105.935 295.882 105.925C290.881 111.312 285.318 116.151 279.286 120.357C274.206 126.317 240.472 157.913 235.099 174.61C235.099 174.61 230.323 186.822 241.362 213.358Z" fill="#0AB97A"/>
<path d="M231.447 296.466C232.585 296.766 233.755 296.924 234.932 296.935C236.074 296.957 237.217 296.894 238.351 296.747C239.485 296.604 240.606 296.375 241.705 296.064C242.841 295.755 243.933 295.304 244.955 294.723C243.811 294.423 242.634 294.266 241.451 294.253C240.315 294.23 239.179 294.293 238.052 294.442C236.925 294.587 235.81 294.816 234.717 295.126C233.577 295.439 232.479 295.889 231.447 296.466ZM195.206 298.565L186.551 298.319C183.671 298.225 180.784 298.075 177.92 297.927L178.364 298.099C176.99 296.892 175.496 295.827 173.906 294.921C173.103 294.466 172.276 294.057 171.427 293.694C170.566 293.353 169.684 293.062 168.788 292.824C165.171 291.884 161.374 291.872 157.751 292.79C154.184 293.705 150.786 295.18 147.684 297.162C144.583 299.112 141.723 301.421 139.165 304.042L140.282 303.625L136.695 303.201C135.5 303.081 134.34 302.875 132.957 302.858C130.28 302.845 127.662 303.637 125.442 305.131C124.34 305.865 123.355 306.762 122.522 307.791C121.722 308.815 121.075 309.748 120.344 310.731L116.077 316.557C115.926 316.763 115.862 317.021 115.901 317.274C115.94 317.528 116.078 317.755 116.284 317.906C116.391 317.984 116.512 318.039 116.641 318.069C117.699 318.297 118.684 318.783 119.509 319.483C120.329 320.268 120.99 321.203 121.454 322.237C121.95 323.316 122.311 324.45 122.531 325.616C122.771 326.791 122.905 327.985 122.932 329.184L122.933 329.257C122.934 329.326 122.952 329.394 122.985 329.454C123.288 329.967 123.688 330.416 124.165 330.775C124.573 331.112 124.985 331.425 125.403 331.726C126.239 332.358 127.13 332.915 128.064 333.39C129.066 333.832 130.158 334.032 131.251 333.971L132.755 333.903C133.222 333.858 133.692 333.878 134.154 333.964C135.043 334.156 135.832 334.664 136.374 335.392C136.916 336.149 137.196 337.061 137.172 337.99C137.242 339.936 136.777 341.864 135.827 343.565C133.738 346.94 130.84 349.744 127.396 351.725C123.989 353.799 120.364 355.492 116.587 356.775C116.488 356.808 116.398 356.861 116.32 356.929C116.242 356.998 116.179 357.081 116.133 357.174C116.087 357.267 116.061 357.368 116.054 357.471C116.048 357.574 116.061 357.678 116.095 357.776C116.109 357.815 116.126 357.854 116.146 357.892C116.858 359.238 117.63 360.49 118.416 361.743C119.203 362.992 120.003 364.23 120.814 365.457C122.439 367.913 124.077 370.351 125.777 372.757C125.871 372.89 125.993 373 126.134 373.08C126.276 373.16 126.433 373.207 126.595 373.219L126.63 373.221C137.92 373.99 149.217 374.615 160.521 375.097C166.181 375.336 171.828 375.575 177.539 375.555C178.248 375.563 178.975 375.54 179.703 375.517L180.792 375.485L182.001 375.366L182.592 375.297L183.071 375.22C183.387 375.165 183.709 375.115 184.056 375.08C184.73 374.998 185.414 374.92 186.11 374.858C188.879 374.592 191.689 374.421 194.494 374.278C197.302 374.13 200.115 374.055 202.923 373.975C205.726 373.908 208.55 373.86 211.296 373.982C211.983 374.005 212.661 374.07 213.257 374.147C213.556 374.176 214.727 374.521 215.38 374.56C216.875 374.745 218.297 374.809 219.732 374.855C222.594 374.937 225.439 374.921 228.284 374.819C231.127 374.708 233.967 374.513 236.802 374.234C239.654 373.979 242.486 373.541 245.282 372.924C247.915 372.082 250.693 371.783 253.446 372.046C254.121 372.143 254.785 372.308 255.427 372.538C256.094 372.749 256.655 373.092 257.455 373.298C257.566 373.326 257.682 373.334 257.796 373.321C257.933 373.32 258.066 373.281 258.182 373.208C258.294 373.181 258.487 372.894 258.435 372.758C258.429 372.622 258.387 372.491 258.313 372.377C258.095 372.064 257.831 371.786 257.529 371.553C256.975 371.1 256.392 370.682 255.785 370.303C255.753 370.282 255.713 370.275 255.676 370.283C255.638 370.291 255.605 370.314 255.584 370.346C255.565 370.378 255.558 370.416 255.565 370.452C255.572 370.488 255.592 370.521 255.622 370.543C256.184 370.958 256.719 371.407 257.224 371.888C257.467 372.106 257.676 372.358 257.846 372.636C257.862 372.685 257.9 372.763 257.881 372.752C257.891 372.763 257.884 372.757 257.884 372.732C257.899 372.713 257.914 372.718 257.884 372.718C257.845 372.732 257.804 372.736 257.763 372.728C257.701 372.732 257.639 372.723 257.581 372.701C257.02 372.524 256.36 372.11 255.696 371.847C255.023 371.559 254.322 371.338 253.605 371.189C250.736 370.719 247.8 370.853 244.985 371.582C242.234 372.06 239.455 372.36 236.665 372.483C233.864 372.634 231.057 372.7 228.245 372.681C225.438 372.674 222.627 372.632 219.841 372.468C218.454 372.387 217.051 372.279 215.745 372.08C214.987 371.98 214.81 371.869 213.722 371.625C212.976 371.501 212.223 371.414 211.468 371.365C205.698 370.998 200.055 371.09 194.365 371.29C191.523 371.399 188.687 371.534 185.826 371.772C185.113 371.826 184.392 371.899 183.663 371.992C183.307 372.029 182.931 372.087 182.55 372.153L181.983 372.248C181.805 372.274 181.677 372.277 181.521 372.294L180.621 372.383L179.591 372.415C178.906 372.437 178.221 372.461 177.516 372.454C171.921 372.454 166.265 372.312 160.626 372.167C149.339 371.844 138.043 371.382 126.751 370.973L127.604 371.437L122.408 364.363C121.554 363.176 120.712 361.983 119.882 360.783C119.06 359.584 118.239 358.369 117.533 357.147L117.092 358.264C120.928 356.811 124.591 354.939 128.015 352.682C131.386 350.41 134.668 347.715 136.665 344.009C137.667 342.15 138.144 340.055 138.047 337.946C138.07 336.842 137.739 335.759 137.101 334.856C136.434 333.943 135.457 333.303 134.353 333.055C133.821 332.948 133.277 332.916 132.736 332.959L131.209 333.001C130.275 333.027 129.347 332.833 128.502 332.432C127.65 331.963 126.839 331.422 126.08 330.815C125.686 330.515 125.3 330.208 124.946 329.884C124.626 329.618 124.351 329.303 124.132 328.949L124.185 329.219C124.217 327.93 124.131 326.64 123.929 325.367C123.743 324.076 123.4 322.812 122.908 321.604C122.404 320.341 121.657 319.188 120.71 318.211C119.677 317.24 118.413 316.549 117.038 316.201L117.601 317.713L122.109 312.081C122.853 311.164 123.627 310.155 124.346 309.314C125.055 308.491 125.88 307.777 126.797 307.194C128.634 306.034 130.767 305.427 132.94 305.445C133.967 305.453 135.19 305.656 136.389 305.787L139.975 306.21C140.176 306.233 140.379 306.21 140.569 306.142C140.759 306.074 140.93 305.963 141.07 305.818L141.093 305.793C143.472 303.314 146.133 301.121 149.022 299.258C151.881 297.369 155.012 295.927 158.307 294.983C161.577 294.073 165.017 293.962 168.339 294.66C171.679 295.448 174.79 297.004 177.422 299.204L177.456 299.231C177.572 299.323 177.717 299.375 177.866 299.377C180.772 299.416 183.658 299.325 186.549 299.249C189.439 299.167 192.327 299.042 195.211 298.855C195.249 298.853 195.284 298.836 195.31 298.809C195.335 298.781 195.349 298.745 195.348 298.707C195.347 298.67 195.332 298.634 195.306 298.607C195.279 298.581 195.244 298.565 195.206 298.565L195.206 298.565Z" fill="black"/>
<path d="M208.798 345.001C209.48 345.366 210.033 345.931 210.382 346.62C210.688 347.264 210.772 347.99 210.622 348.686C210.478 349.397 210.223 350.08 209.865 350.711C209.486 351.347 209.06 351.954 208.589 352.526C206.537 354.851 204.269 356.977 201.817 358.877C199.394 360.855 196.835 362.679 194.223 364.44C191.598 366.187 188.898 367.826 186.107 369.441C189.256 368.687 192.295 367.531 195.149 366.001C198.025 364.497 200.748 362.716 203.279 360.685C205.87 358.663 208.151 356.274 210.05 353.594C210.525 352.88 210.927 352.122 211.252 351.329C211.562 350.51 211.732 349.644 211.756 348.768C211.772 347.865 211.477 346.983 210.92 346.27C210.382 345.614 209.631 345.165 208.798 345.001ZM179.837 319.368C179.534 318.948 179.146 318.597 178.698 318.337C178.25 318.077 177.752 317.914 177.237 317.858C176.164 317.782 175.092 318.021 174.154 318.546C172.371 319.596 170.819 320.995 169.591 322.659C167.155 325.723 164.733 328.82 162.446 332.05C160.127 335.283 158.097 338.714 156.379 342.302C155.53 344.124 154.86 346.024 154.378 347.975C153.889 349.927 153.815 351.96 154.16 353.942C154.387 349.976 156.151 346.493 157.998 343.126C158.985 341.466 159.962 339.801 161.06 338.198C162.113 336.571 163.222 334.97 164.353 333.383C166.567 330.175 168.906 327.022 171.061 323.714C172.04 322.115 173.286 320.695 174.745 319.516C175.458 318.953 176.316 318.6 177.219 318.499C178.172 318.435 179.112 318.747 179.837 319.368ZM173.567 372.103C171.802 371.712 170.06 371.227 168.346 370.653C166.712 370.084 165.132 369.371 163.625 368.524C162.858 368.138 162.177 367.621 161.451 367.164C160.783 366.632 160.068 366.144 159.435 365.547C158.103 364.334 156.84 363.046 155.653 361.692C156.08 363.55 156.918 365.29 158.106 366.785C159.282 368.333 160.773 369.615 162.481 370.548C164.162 371.503 166.008 372.134 167.922 372.41C169.804 372.719 171.73 372.614 173.567 372.103Z" fill="black"/>
<path d="M207.006 348.875C204.713 346.434 202.296 344.155 199.838 341.927C197.391 339.687 194.873 337.537 192.355 335.39C189.808 333.276 187.268 331.159 184.67 329.11L176.851 322.945C178.822 325.646 181.035 328.164 183.462 330.466C185.833 332.808 188.324 335.013 190.854 337.167C193.413 339.287 196.003 341.368 198.691 343.326C201.364 345.32 204.139 347.172 207.006 348.875ZM176.991 299.385C177.41 299.776 177.784 300.213 178.106 300.687C178.456 301.187 178.759 301.718 179.009 302.274C179.538 303.431 179.82 304.684 179.837 305.956C180.211 304.661 180.311 303.302 180.132 301.967C180.045 301.276 179.895 300.595 179.681 299.932C179.464 299.231 179.169 298.557 178.801 297.922L178.788 297.9C178.629 297.631 178.37 297.436 178.067 297.358C177.764 297.28 177.442 297.325 177.172 297.483C176.903 297.641 176.707 297.9 176.628 298.202C176.549 298.505 176.593 298.826 176.751 299.095C176.815 299.204 176.896 299.301 176.991 299.385Z" fill="black"/>
<path d="M179.011 325.105C182.471 319.893 185.838 314.624 189.255 309.386L199.349 293.573C199.445 293.423 199.487 293.244 199.47 293.066C199.452 292.889 199.376 292.722 199.252 292.593L199.239 292.579C192.895 285.968 186.371 279.549 179.741 273.221C176.42 270.064 173.058 266.945 169.571 263.952C167.825 262.457 166.07 260.969 164.24 259.558C162.411 258.094 160.47 256.773 158.437 255.606L157.616 255.193L156.7 254.85C156.344 254.756 155.981 254.692 155.614 254.66L154.685 254.677C153.438 254.741 152.212 255.024 151.063 255.513C150.14 256.017 149.144 256.374 148.11 256.57C147.11 256.57 146.132 256.272 145.303 255.714C144.828 255.475 144.381 255.129 143.917 254.843L142.577 253.841C141.657 253.13 140.724 252.44 139.767 251.788C137.852 250.486 135.863 249.31 133.845 248.207C131.829 247.1 129.77 246.085 127.759 245.02C126.771 244.519 125.833 243.925 124.958 243.246C124.863 243.173 124.78 243.087 124.71 242.99C124.625 242.9 124.552 242.8 124.492 242.691C124.347 242.45 124.205 242.208 124.074 241.964C123.804 241.507 123.597 241.015 123.457 240.503C123.398 240.323 123.399 240.128 123.462 239.949C123.508 239.883 123.569 239.83 123.64 239.792C123.711 239.755 123.79 239.734 123.87 239.733C124.402 239.691 124.936 239.71 125.464 239.789C126.582 239.912 127.704 240.102 128.813 240.331C129.921 240.556 131.016 240.84 132.094 241.181C133.149 241.465 134.137 241.954 135.001 242.621L135.012 242.631C135.072 242.685 135.148 242.717 135.228 242.722C135.309 242.727 135.389 242.704 135.454 242.657C135.52 242.611 135.568 242.543 135.59 242.466C135.612 242.388 135.607 242.306 135.576 242.232C134.249 239.083 132.975 235.91 131.755 232.713C130.491 229.553 129.433 226.315 128.587 223.019C128.5 222.621 128.437 222.217 128.399 221.811C128.38 221.63 128.379 221.448 128.396 221.267C128.407 221.191 128.425 221.159 128.435 221.099C128.46 221.047 128.493 220.998 128.532 220.955C128.71 220.649 129.601 220.966 130.219 221.413C131.552 222.406 132.744 223.575 133.764 224.887C135.872 227.539 137.726 230.382 139.304 233.378C139.366 233.493 139.458 233.587 139.571 233.652C139.683 233.717 139.812 233.749 139.942 233.745L139.965 233.744C141.791 233.687 143.636 233.67 145.462 233.715C147.246 233.712 149.025 233.878 150.777 234.212C151.662 234.604 152.58 234.92 153.519 235.155C154.054 235.169 154.589 235.115 155.109 234.994C155.31 234.962 155.508 234.947 155.708 234.934C155.896 234.931 156.083 234.937 156.27 234.955C157.949 235.157 159.561 235.737 160.984 236.65C161.139 236.757 161.288 236.874 161.427 237L161.921 237.482C162.297 237.814 162.691 238.125 163.102 238.414C163.884 238.972 164.671 239.479 165.459 239.978C167.014 240.971 168.665 241.926 170.068 242.905L170.284 243.074C170.415 243.168 170.596 243.287 170.742 243.373L171.383 243.717L172.626 244.355L175.098 245.61L180.016 248.139C186.548 251.549 192.987 255.129 199.247 258.982C205.528 262.759 211.542 266.963 217.246 271.564C220.065 273.843 222.68 276.363 225.062 279.094C225.618 279.793 226.231 280.46 226.721 281.199L227.496 282.284C227.743 282.651 227.954 283.035 228.186 283.409C229.104 284.88 229.784 286.487 230.201 288.17C230.881 291.657 230.823 295.247 230.031 298.711C229.297 302.271 228.254 305.761 226.914 309.141C224.202 315.965 220.959 322.567 217.216 328.886C213.518 335.251 209.526 341.445 205.239 347.467C205.23 347.479 205.223 347.493 205.22 347.508C205.216 347.523 205.215 347.538 205.217 347.553C205.22 347.569 205.225 347.583 205.233 347.596C205.241 347.609 205.251 347.621 205.263 347.63C205.288 347.647 205.318 347.655 205.348 347.651C205.377 347.647 205.404 347.632 205.424 347.609C207.737 344.723 209.931 341.747 212.059 338.722C214.186 335.697 216.261 332.631 218.208 329.481C222.196 323.214 225.666 316.632 228.583 309.801C230.028 306.342 231.169 302.764 231.992 299.107C232.911 295.367 233.034 291.475 232.352 287.685C231.919 285.772 231.186 283.939 230.183 282.253C229.936 281.839 229.71 281.408 229.445 281.008L228.622 279.832C228.094 279.027 227.461 278.323 226.873 277.574C224.425 274.714 221.732 272.073 218.824 269.68C207.263 260.153 194.204 252.921 181.04 246.157L176.075 243.668L173.592 242.44L172.364 241.826L171.781 241.52C171.739 241.494 171.696 241.472 171.651 241.452L171.32 241.198C169.684 240.076 168.108 239.219 166.533 238.251C165.752 237.776 164.977 237.295 164.247 236.794C163.897 236.558 163.56 236.303 163.238 236.031L162.731 235.555C162.526 235.375 162.309 235.209 162.081 235.058C161.232 234.509 160.314 234.074 159.352 233.764C158.404 233.439 157.422 233.226 156.425 233.129C156.152 233.108 155.877 233.104 155.602 233.117C155.342 233.138 155.079 233.164 154.824 233.209C154.447 233.307 154.061 233.364 153.672 233.379C153.312 233.329 152.961 233.222 152.634 233.064C152.421 232.978 152.291 232.892 152.001 232.784C151.741 232.673 151.471 232.589 151.195 232.533C149.307 232.214 147.393 232.081 145.479 232.137C143.609 232.142 141.758 232.211 139.891 232.32L140.552 232.686C138.85 229.665 136.875 226.806 134.654 224.141C133.536 222.771 132.234 221.561 130.787 220.543C130.387 220.278 129.951 220.072 129.492 219.93C129.222 219.848 128.939 219.822 128.658 219.852C128.323 219.89 128.015 220.054 127.796 220.311C127.591 220.548 127.466 220.845 127.439 221.158C127.42 221.404 127.425 221.651 127.455 221.895C127.507 222.34 127.586 222.782 127.691 223.217C128.606 226.539 129.714 229.805 131.01 232.999C132.256 236.195 133.562 239.366 134.926 242.511L135.501 242.121C134.557 241.379 133.478 240.826 132.323 240.493C131.224 240.129 130.106 239.825 128.973 239.581C127.845 239.335 126.71 239.129 125.555 238.988C124.951 238.889 124.338 238.866 123.729 238.918C123.523 238.939 123.324 239.007 123.15 239.117C122.975 239.228 122.828 239.378 122.722 239.555C122.558 239.906 122.524 240.302 122.626 240.675C122.775 241.27 123.004 241.841 123.308 242.373C123.445 242.634 123.589 242.887 123.735 243.137C123.901 243.421 124.11 243.677 124.354 243.897C125.273 244.637 126.263 245.286 127.309 245.832C129.312 246.965 131.326 248.036 133.288 249.189C135.25 250.339 137.169 251.553 138.999 252.878C139.914 253.541 140.799 254.238 141.669 254.952L143.046 256.044C143.544 256.374 143.997 256.745 144.535 257.041C145.608 257.782 146.879 258.185 148.184 258.199C148.848 258.163 149.502 258.017 150.119 257.766C150.687 257.545 151.207 257.304 151.707 257.117C152.679 256.733 153.71 256.525 154.755 256.502L155.542 256.51C155.742 256.542 155.941 256.585 156.136 256.639L156.819 256.918L157.522 257.295C159.438 258.44 161.264 259.729 162.985 261.151C164.748 262.571 166.489 264.027 168.21 265.52C171.638 268.515 175.024 271.568 178.368 274.678C185.062 280.884 191.584 287.293 198.074 293.713L197.964 292.719L188.313 308.804C185.148 314.199 181.934 319.562 178.813 324.983C178.798 325.009 178.793 325.04 178.801 325.069C178.808 325.099 178.827 325.124 178.852 325.14C178.878 325.156 178.909 325.161 178.939 325.154C178.968 325.148 178.994 325.13 179.011 325.105L179.011 325.105Z" fill="black"/>
<path d="M130.548 303.787C132.057 300.914 133.296 297.907 134.249 294.805C135.231 291.684 135.903 288.475 136.255 285.222C136.626 281.922 136.517 278.586 135.932 275.317C135.309 272.12 134.632 269.019 134.064 265.849C133.448 262.7 132.89 259.54 132.366 256.376C132.21 255.562 132.15 254.862 131.901 253.89C131.644 252.986 131.219 252.138 130.648 251.392C130.077 250.651 129.371 250.026 128.567 249.548C127.704 249.071 127.016 248.844 126.274 248.497C124.805 247.854 123.355 247.169 121.903 246.487L119.733 245.442L118.656 244.904L118.125 244.634C118.016 244.575 117.917 244.5 117.829 244.412C117.674 244.163 117.602 243.871 117.625 243.579C117.647 243.287 117.761 243.01 117.952 242.787C118.131 242.496 118.382 242.257 118.682 242.092C118.981 241.926 119.318 241.841 119.659 241.844C121.255 241.85 122.821 242.272 124.204 243.067C122.907 242.035 121.346 241.389 119.698 241.201C119.233 241.14 118.76 241.205 118.33 241.391C117.903 241.589 117.527 241.881 117.23 242.246C116.918 242.618 116.704 243.061 116.606 243.537C116.549 243.805 116.548 244.082 116.601 244.35C116.655 244.619 116.762 244.875 116.917 245.101C117.083 245.326 117.29 245.518 117.527 245.667L118.052 245.989L119.095 246.615L121.198 247.839C122.608 248.643 124.048 249.393 125.492 250.135C126.193 250.506 127.016 250.865 127.543 251.209C128.114 251.581 128.612 252.055 129.011 252.608C129.403 253.159 129.687 253.779 129.849 254.435C129.988 255.027 130.07 255.938 130.186 256.711C130.649 259.913 131.193 263.101 131.777 266.282C132.39 269.446 133.094 272.64 133.776 275.75C134.407 278.819 134.633 281.956 134.45 285.084C134.014 291.467 132.701 297.761 130.548 303.787Z" fill="black"/>
<path d="M102.907 243.25H117.261C117.415 243.25 117.563 243.188 117.672 243.079C117.781 242.971 117.843 242.823 117.843 242.669C117.843 242.515 117.781 242.367 117.672 242.258C117.563 242.149 117.415 242.088 117.261 242.088H103.643L105.158 235.734H132.278C132.433 235.734 132.581 235.672 132.69 235.563C132.799 235.455 132.86 235.307 132.86 235.153C132.86 234.999 132.799 234.851 132.69 234.742C132.581 234.633 132.433 234.572 132.278 234.572H104.698C104.567 234.572 104.44 234.616 104.337 234.697C104.234 234.778 104.162 234.891 104.132 235.018L102.341 242.534C102.32 242.62 102.319 242.709 102.338 242.794C102.357 242.88 102.395 242.96 102.45 243.029C102.504 243.098 102.574 243.154 102.653 243.192C102.732 243.23 102.819 243.25 102.907 243.25V243.25Z" fill="black"/>
<path d="M118.83 235.152C118.898 234.585 119.124 234.048 119.48 233.602C119.801 233.246 120.193 232.962 120.631 232.767C121.602 232.383 122.624 232.142 123.664 232.052C124.212 231.976 124.766 231.904 125.343 231.868C125.629 231.836 125.915 231.811 126.202 231.767C126.492 231.747 126.785 231.725 127.079 231.694C128.305 231.585 129.52 231.384 130.715 231.092C129.6 230.495 128.397 230.082 127.15 229.867C126.533 229.74 125.904 229.671 125.273 229.663C124.955 229.654 124.64 229.643 124.319 229.653L123.35 229.749C121.971 229.876 120.66 230.407 119.583 231.276C119.019 231.777 118.618 232.434 118.431 233.164C118.356 233.505 118.353 233.857 118.422 234.2C118.49 234.542 118.629 234.866 118.83 235.152ZM144.155 255.911C145.211 259.301 146.437 262.605 147.706 265.885C148.959 269.171 150.305 272.413 151.586 275.666C152.252 277.281 152.886 278.908 153.472 280.528C153.773 281.337 154.053 282.142 154.267 282.931C154.359 283.285 154.428 283.644 154.474 284.006C154.488 284.411 154.493 284.822 154.471 285.245C154.274 288.636 153.626 292.126 153.112 295.626C154.615 292.376 155.68 288.942 156.281 285.413C156.351 284.961 156.395 284.493 156.428 284.018C156.415 283.504 156.358 282.992 156.259 282.487C156.069 281.562 155.823 280.688 155.563 279.828C155.016 278.117 154.387 276.457 153.747 274.804C152.406 271.525 150.96 268.303 149.362 265.153C147.793 261.981 146.055 258.896 144.155 255.911ZM135.301 278.419C135.64 279.344 136.177 280.184 136.874 280.881C137.575 281.605 138.417 282.179 139.348 282.569C139.823 282.755 140.315 282.894 140.818 282.985C141.322 283.055 141.833 283.063 142.339 283.009C143.331 282.918 144.282 282.574 145.103 282.012C144.183 282.129 143.254 282.159 142.328 282.102C141.453 282.044 140.594 281.837 139.788 281.493C138.122 280.742 136.602 279.701 135.301 278.419ZM197.902 294.032C198.864 294.593 199.832 295.144 200.813 295.672C201.784 296.215 202.789 296.697 203.821 297.113C203.01 296.378 202.247 295.592 201.535 294.76C200.811 293.941 200.107 293.104 199.411 292.261C199.312 292.14 199.191 292.041 199.054 291.968C198.917 291.894 198.766 291.849 198.612 291.834C198.457 291.819 198.3 291.834 198.151 291.879C198.003 291.924 197.864 291.998 197.744 292.097C197.624 292.196 197.524 292.317 197.451 292.454C197.378 292.592 197.333 292.742 197.318 292.896C197.303 293.051 197.319 293.207 197.365 293.356C197.411 293.504 197.485 293.642 197.584 293.762C197.674 293.869 197.781 293.961 197.902 294.032ZM122.991 333.579C121.493 335.366 120.158 337.182 118.682 338.872C117.965 339.726 117.2 340.539 116.39 341.306C115.569 342.083 114.669 342.772 113.704 343.361C114.881 343.177 115.997 342.715 116.959 342.013C117.926 341.333 118.802 340.532 119.565 339.629C120.325 338.741 121 337.783 121.579 336.768C122.174 335.765 122.649 334.694 122.991 333.579Z" fill="black"/>
<path d="M116.839 358.1C116.989 358.1 117.134 358.041 117.243 357.937C117.351 357.833 117.415 357.69 117.421 357.54C117.427 357.356 117.47 353.003 107.257 350.841C107.107 350.81 106.951 350.839 106.822 350.922C106.693 351.005 106.602 351.134 106.568 351.283C106.327 352.067 105.895 352.779 105.311 353.355C104.726 353.931 104.007 354.353 103.219 354.584C102.738 354.743 102.236 354.967 101.75 355.182C100.406 355.779 99.0175 356.393 97.9395 355.787C96.639 355.059 95.7083 352.608 95.1741 348.502C92.6683 329.286 79.6339 322.459 76.3999 321.048C80.3748 316.148 90.1805 315.93 94.3208 316.067L94.5964 316.074C95.2356 316.074 95.7072 315.5 96.4874 314.546C97.3212 313.478 98.2621 312.498 99.2952 311.621C99.7372 311.258 99.9609 311.344 100.037 311.374C100.874 311.7 101.56 314.113 101.782 315.721C101.801 315.867 101.876 316.001 101.99 316.094C102.105 316.187 102.25 316.233 102.398 316.222C107.194 315.802 112.026 316.296 116.637 317.678C116.782 317.732 116.943 317.725 117.083 317.661C117.223 317.596 117.332 317.479 117.385 317.334C117.439 317.189 117.432 317.029 117.368 316.889C117.303 316.749 117.185 316.641 117.04 316.588C112.451 315.18 107.637 314.652 102.851 315.03C102.622 313.718 101.958 310.876 100.461 310.292C100.135 310.176 99.783 310.155 99.4456 310.231C99.1082 310.308 98.7995 310.478 98.5554 310.723C97.4626 311.649 96.4675 312.683 95.5854 313.811C95.2909 314.224 94.9431 314.596 94.5509 314.918L94.3611 314.905C89.8669 314.755 78.9757 315.035 75.0029 320.983C74.9535 321.057 74.9218 321.142 74.9102 321.23C74.8987 321.318 74.9075 321.408 74.9362 321.492C74.9649 321.577 75.0126 321.653 75.0756 321.716C75.1386 321.779 75.2153 321.827 75.2997 321.856C75.4587 321.91 91.266 327.532 94.0187 348.653C94.6208 353.267 95.685 355.856 97.3693 356.8C98.9614 357.692 100.695 356.923 102.223 356.245C102.705 356.03 103.16 355.828 103.588 355.686C104.47 355.415 105.28 354.951 105.961 354.329C106.641 353.707 107.175 352.942 107.524 352.089C116.138 354.042 116.258 357.463 116.257 357.498C116.254 357.574 116.266 357.65 116.293 357.722C116.32 357.793 116.36 357.859 116.412 357.915C116.464 357.971 116.527 358.016 116.596 358.048C116.666 358.079 116.741 358.097 116.818 358.1H116.839Z" fill="black"/>
<path d="M117.635 356.903C117.635 356.903 117.784 352.879 107.931 350.793C107.667 351.674 107.188 352.475 106.536 353.126C105.885 353.776 105.082 354.255 104.199 354.519C101.064 355.562 96.8931 359.479 95.3917 347.961C92.5554 326.204 76.2835 320.69 76.2835 320.69C60.0117 324.713 53.2939 336.039 48.9647 340.659C44.6355 345.279 30.3043 351.389 15.0775 358.393C-0.149254 365.397 0 371.505 0 371.505L127.488 371.487C127.488 371.487 119.725 360.778 117.635 356.903ZM108.986 315C108.55 315.896 108.33 316.882 108.344 317.878C108.309 318.878 108.53 319.871 108.986 320.762C109.341 319.845 109.518 318.868 109.508 317.885C109.533 316.898 109.356 315.916 108.986 315ZM94.7946 323.327C94.3418 323.312 93.9127 323.121 93.5979 322.796C93.2831 322.471 93.1071 322.036 93.1071 321.584C93.1071 321.131 93.2831 320.697 93.5979 320.372C93.9127 320.046 94.3418 319.856 94.7946 319.84C95.2474 319.856 95.6765 320.046 95.9913 320.372C96.3061 320.697 96.482 321.131 96.482 321.584C96.482 322.036 96.3061 322.471 95.9913 322.796C95.6765 323.121 95.2474 323.312 94.7946 323.327ZM91.8089 317.556C91.4638 317.624 91.1366 317.762 90.8479 317.963C90.5593 318.163 90.3155 318.421 90.132 318.721C89.7668 319.285 89.557 319.935 89.5239 320.605C89.4908 321.254 89.6165 321.902 89.8901 322.492C90.1722 323.105 90.6327 323.62 91.2118 323.968C91.4408 323.395 91.6033 322.798 91.696 322.189C91.7769 321.704 91.828 321.215 91.8491 320.724C91.8762 320.26 91.8694 319.808 91.8582 319.312C91.8432 318.807 91.8115 318.287 91.8089 317.556Z" fill="black"/>
<path d="M341.426 144.78V148.8C341.339 147.717 341.263 146.601 341.209 145.485C341.195 145.232 341.272 144.982 341.426 144.78ZM341.426 134.302V134.563C341.405 134.556 341.387 134.544 341.372 134.529C341.357 134.514 341.346 134.496 341.339 134.476C341.329 134.441 341.332 134.404 341.348 134.372C341.364 134.34 341.392 134.315 341.426 134.302ZM448.794 277.547L448.62 280.31C448.545 281.231 448.534 282.152 448.501 283.073C448.469 284.904 448.479 286.746 448.599 288.588V288.61C448.6 288.675 448.587 288.74 448.561 288.8C448.535 288.86 448.496 288.913 448.447 288.956V276.918C448.561 276.977 448.655 277.068 448.716 277.18C448.778 277.292 448.805 277.419 448.794 277.547ZM448.794 255.334L448.62 258.097C448.545 259.018 448.534 259.939 448.501 260.86C448.469 262.702 448.479 264.544 448.599 266.386V266.408C448.599 266.473 448.586 266.538 448.56 266.597C448.533 266.657 448.495 266.711 448.447 266.755V254.706C448.559 254.766 448.651 254.858 448.713 254.969C448.775 255.08 448.803 255.207 448.794 255.334ZM341.328 210.909C341.361 210.907 341.394 210.911 341.426 210.92V210.898C341.394 210.907 341.361 210.911 341.328 210.909Z" fill="white"/>
</svg>
